<?xml version="1.0" standalone="no"?>
<!DOCTYPE svg PUBLIC "-//W3C//DTD SVG 20010904//EN"
 "http://www.w3.org/TR/2001/REC-SVG-20010904/DTD/svg10.dtd">
<svg version="1.0" xmlns="http://www.w3.org/2000/svg"
 width="700.000000pt" height="700.000000pt" viewBox="0 0 700.000000 700.000000"
 preserveAspectRatio="xMidYMid meet">
<metadata>
Created by potrace 1.14, written by Peter Selinger 2001-2017
</metadata>
<g transform="translate(0.000000,700.000000) scale(0.100000,-0.100000)"
fill="#000000" stroke="none">
<path d="M3125 6524 c-529 -63 -1033 -266 -1458 -588 -62 -46 -133 -104 -160
-128 l-47 -43 170 -189 c93 -104 171 -191 174 -193 2 -3 40 25 83 62 43 37
138 106 210 155 316 210 642 336 1033 397 161 25 538 25 700 0 1129 -174 1974
-1037 2131 -2177 19 -136 16 -506 -4 -643 -112 -740 -507 -1362 -1120 -1765
-54 -35 -99 -63 -101 -61 -2 2 -42 78 -91 167 -71 134 -90 161 -100 150 -27
-28 -576 -880 -571 -885 9 -9 1208 -295 1213 -289 3 2 -42 92 -100 199 l-104
195 94 59 c672 414 1160 1100 1347 1893 55 231 70 372 70 675 0 241 -3 300
-22 425 -75 483 -244 915 -509 1297 -498 720 -1279 1188 -2148 1288 -163 19
-526 18 -690 -1z"/>
<path d="M3270 4632 l0 -898 -52 -34 c-59 -39 -112 -110 -129 -173 -15 -58 -6
-154 20 -205 29 -57 87 -113 147 -143 40 -20 64 -24 134 -24 100 0 154 20 223
84 l44 41 607 0 606 0 0 170 0 170 -608 0 -608 0 -38 39 c-21 21 -56 47 -77
56 l-39 18 0 899 0 898 -115 0 -115 0 0 -898z"/>
<path d="M987 5228 c-93 -123 -252 -425 -330 -628 -45 -115 -127 -387 -127
-418 0 -14 51 -31 248 -84 136 -36 248 -65 250 -63 2 1 16 52 32 111 65 248
183 519 309 712 34 51 61 97 61 101 0 7 -358 266 -407 294 -7 5 -22 -6 -36
-25z"/>
<path d="M463 3409 c3 -118 13 -261 22 -319 21 -137 64 -337 78 -371 l12 -27
230 110 c127 60 233 113 237 116 4 4 0 34 -7 67 -29 124 -46 266 -52 437 l-6
176 -86 6 c-47 3 -164 8 -260 12 l-174 6 6 -213z"/>
<path d="M937 2419 l-217 -150 50 -100 c99 -196 269 -458 371 -571 l34 -37
170 150 c94 82 180 160 193 172 l22 23 -46 59 c-94 121 -208 304 -281 453 -41
83 -76 152 -77 152 -2 0 -100 -68 -219 -151z"/>
<path d="M1817 1305 c-117 -162 -146 -209 -137 -219 16 -20 138 -104 249 -170
164 -100 447 -234 462 -219 9 10 189 456 189 469 0 6 -26 21 -57 34 -148 60
-343 167 -476 262 -37 26 -70 48 -75 48 -4 0 -74 -92 -155 -205z"/>
<path d="M3046 1029 c-3 -8 -24 -113 -46 -234 -23 -121 -43 -230 -46 -241 -5
-20 0 -23 63 -33 159 -25 270 -32 470 -33 117 0 222 3 233 7 16 5 19 12 15 28
-4 12 -40 127 -81 255 l-75 232 -122 0 c-111 0 -186 6 -349 26 -45 5 -59 4
-62 -7z"/>
</g>
</svg>
